<svg width="237" height="132" viewBox="0 0 237 132" fill="none" xmlns="http://www.w3.org/2000/svg">
<path d="M110.84 55.44C112.173 57.7333 112.84 59.9467 112.84 62.08C112.84 62.56 112.787 62.9867 112.68 63.36C112.627 63.7867 112.547 64.2133 112.44 64.64C111.533 64.5333 110.573 64.4533 109.56 64.4C108.6 64.3467 107.587 64.32 106.52 64.32C105.24 64.32 103.933 64.3467 102.6 64.4C101.32 64.5067 99.88 64.64 98.28 64.8C96.68 64.96 94.8933 65.1733 92.92 65.44C90.9467 65.7067 88.6533 66.0533 86.04 66.48C84.8133 66.0533 83.5867 65.2 82.36 63.92C81.1333 62.6933 79.9867 61.2 78.92 59.44C79.4533 58.2667 80.12 56.8267 80.92 55.12C81.72 53.36 82.6533 51.2533 83.72 48.8C84.7867 46.2933 85.96 43.3867 87.24 40.08C88.5733 36.72 89.9867 32.8533 91.48 28.48C92.44 25.6 93.2667 23.0667 93.96 20.88C94.6533 18.6933 95.2667 16.5867 95.8 14.56C96.3867 12.48 96.9467 10.32 97.48 8.08C98.0133 5.84 98.6 3.25333 99.24 0.319996C101.373 0.746663 103.213 1.54666 104.76 2.72C106.36 3.84 107.88 5.46666 109.32 7.6C108.893 8.29333 108.333 9.41333 107.64 10.96C106.947 12.5067 106.12 14.4 105.16 16.64C104.253 18.8267 103.24 21.3333 102.12 24.16C101 26.9333 99.8267 29.92 98.6 33.12C97.4267 36.2667 96.28 39.2267 95.16 42C94.04 44.7733 93.0267 47.28 92.12 49.52C91.2667 51.76 90.5733 53.68 90.04 55.28C89.5067 56.88 89.24 58.08 89.24 58.88C90.0933 58.8267 90.8667 58.7733 91.56 58.72C92.2533 58.6667 92.9733 58.5867 93.72 58.48C94.4667 58.32 95.2667 58.16 96.12 58C97.0267 57.7867 98.0933 57.52 99.32 57.2C100.387 56.9333 101.373 56.72 102.28 56.56C103.187 56.3467 104.067 56.1867 104.92 56.08C105.827 55.92 106.733 55.8133 107.64 55.76C108.6 55.6533 109.667 55.5467 110.84 55.44Z" fill="#151515"/>
<path d="M130.4 71.56C131.787 71.56 132.88 72.04 133.68 73C134.48 73.96 134.88 75.2933 134.88 77C134.88 77.4267 134.853 77.88 134.8 78.36C134.747 78.7867 134.667 79.16 134.56 79.48C133.44 79.2133 132.213 79.0533 130.88 79C130.56 81.3467 129.707 83.8267 128.32 86.44C126.933 89 125.253 91.4267 123.28 93.72C121.307 95.96 119.147 97.9333 116.8 99.64C114.453 101.347 112.133 102.493 109.84 103.08C102.693 102.92 97.4667 101.053 94.16 97.48C90.9067 93.96 89.28 88.44 89.28 80.92C89.28 75.4267 90.2933 70.12 92.32 65C94.3467 59.8267 97.04 55.24 100.4 51.24C103.76 47.24 107.6 44.04 111.92 41.64C116.293 39.1867 120.827 37.96 125.52 37.96C129.2 37.96 132.053 38.7333 134.08 40.28C136.16 41.8267 137.2 44.0133 137.2 46.84C137.2 48.7067 136.747 50.44 135.84 52.04C134.987 53.64 133.547 55.3733 131.52 57.24C130.293 56.8667 129.227 56.2267 128.32 55.32C127.413 54.36 126.853 53.2667 126.64 52.04C128.453 50.7067 129.733 49.48 130.48 48.36C131.227 47.24 131.6 45.9067 131.6 44.36C131.6 41.9067 130.133 40.68 127.2 40.68C124.8 40.68 122.213 41.5867 119.44 43.4C116.72 45.16 113.973 47.72 111.2 51.08C107.253 55.8267 104.373 60.7333 102.56 65.8C100.747 70.8133 99.84 76.4667 99.84 82.76C99.84 85.1067 100.08 87.24 100.56 89.16C101.04 91.08 101.68 92.76 102.48 94.2C103.28 95.64 104.213 96.7867 105.28 97.64C106.4 98.4933 107.6 98.9733 108.88 99.08C110.587 98.7067 112.293 97.8533 114 96.52C115.707 95.1333 117.253 93.5333 118.64 91.72C120.08 89.8533 121.28 87.88 122.24 85.8C123.253 83.6667 123.867 81.64 124.08 79.72C122.587 80.04 121.147 80.36 119.76 80.68C118.427 80.9467 117.147 81.08 115.92 81.08C114.32 81.08 112.907 80.68 111.68 79.88C110.507 79.08 109.707 77.9867 109.28 76.6C110.24 76.0667 111.627 75.5067 113.44 74.92C115.307 74.3333 117.28 73.8 119.36 73.32C121.44 72.7867 123.467 72.36 125.44 72.04C127.467 71.72 129.12 71.56 130.4 71.56Z" fill="#FF9F29"/>
<path d="M10.3202 68.0648L61.5248 32.1795L63.1262 44.3795C63.2448 45.2832 63.1286 46.1488 62.7776 46.9762C62.4266 47.8037 61.7444 48.5597 60.7312 49.2443L37.217 65.4995C36.249 66.1781 35.1816 66.8009 34.015 67.3677C32.8935 67.9286 31.6984 68.4531 30.4295 68.9414C31.7814 69.0857 33.0715 69.2841 34.2997 69.5366C35.5671 69.7379 36.759 70.0641 37.8754 70.5151L64.7881 80.151C65.9437 80.5509 66.7979 81.1053 67.3506 81.8141C67.9032 82.523 68.2419 83.3518 68.3664 84.3007L69.9678 96.5007L11.2277 74.9782L10.3202 68.0648Z" fill="#B3B3B3"/>
<path d="M160.43 94.2375L164.299 82.5569C164.6 81.6484 165.088 80.8981 165.765 80.306C166.441 79.7138 167.384 79.3301 168.594 79.1549L196.839 74.7563C199.116 74.4061 201.652 74.3581 204.448 74.6122C203.294 73.8938 202.198 73.1465 201.158 72.3702C200.163 71.6083 199.253 70.803 198.43 69.9543L178.396 49.564C177.529 48.701 177.002 47.8301 176.813 46.9514C176.624 46.0726 176.672 45.2006 176.959 44.3354L180.828 32.6548L224.363 77.536L222.171 84.155L160.43 94.2375Z" fill="#B3B3B3"/>
<path d="M146.36 101.612L138.389 100.928L178.245 17.7299L186.216 18.4135L146.36 101.612Z" fill="#B3B3B3"/>
</svg>
